<svg width="14" height="14" viewBox="0 0 14 14" fill="none" xmlns="http://www.w3.org/2000/svg">
<path d="M0.255686 14H2.64209V4.10714H0.255686V14ZM1.46593 2.92857C2.30117 2.92857 2.93186 2.28571 2.93186 1.46429C2.93186 0.642857 2.30117 0 1.46593 0C0.613646 0 0 0.642857 0 1.46429C0 2.28571 0.613646 2.92857 1.46593 2.92857Z" fill="currentColor"/>
<path d="M11.6136 14H14V8.19643C14 5.46429 12.4318 3.96429 10.2329 3.96429C9.02265 3.96429 7.9999 4.5 7.38626 5.33929V4.10714H4.99986V14H7.38626V8.53571C7.38626 6.94643 8.2215 6.08929 9.51697 6.08929C10.7784 6.08929 11.6136 6.94643 11.6136 8.53571V14Z" fill="currentColor"/>
</svg>
