<svg width="19" height="15" viewBox="0 0 19 15" fill="none" xmlns="http://www.w3.org/2000/svg">
<path d="M19 1.77577C18.2934 2.07692 17.5406 2.27654 16.7556 2.37346C17.5631 1.905 18.1794 1.16885 18.4692 0.281538C17.7163 0.717692 16.8851 1.02577 15.9992 1.19769C15.2843 0.458077 14.2654 0 13.1539 0C10.9974 0 9.26131 1.70077 9.26131 3.78577C9.26131 4.08577 9.28744 4.37423 9.35156 4.64885C6.11325 4.49538 3.24781 2.98731 1.32287 0.69C0.986812 1.25654 0.789688 1.905 0.789688 2.60308C0.789688 3.91385 1.48438 5.07577 2.51988 5.74846C1.89406 5.73692 1.28013 5.56038 0.76 5.28231C0.76 5.29385 0.76 5.30885 0.76 5.32385C0.76 7.16308 2.11019 8.69077 3.88075 9.04269C3.56369 9.12692 3.21812 9.16731 2.8595 9.16731C2.61013 9.16731 2.35837 9.15346 2.12206 9.10269C2.62675 10.6015 4.05888 11.7035 5.76175 11.7392C4.4365 12.7465 2.75381 13.3535 0.932188 13.3535C0.61275 13.3535 0.306375 13.3396 0 13.3015C1.72544 14.3827 3.77031 15 5.9755 15C13.1432 15 17.062 9.23077 17.062 4.23C17.062 4.06269 17.0561 3.90115 17.0478 3.74077C17.8208 3.20769 18.4704 2.54192 19 1.77577Z" fill="currentColor"/>
</svg>
